<?xml version="1.0" encoding="UTF-8"?>
<svg xmlns="http://www.w3.org/2000/svg" version="1.1" viewBox="0 0 1086 1652">
  <!-- Generator: Adobe Illustrator 28.7.1, SVG Export Plug-In . SVG Version: 1.2.0 Build 142)  -->
  <g>
    <g id="_레이어_2" data-name="레이어_2">
      <rect x="-747" y="-129" width="2398" height="1796" fill="#fff5f5"/>
      <path d="M55.5,69.3l71.7,23.7,70.7-15.8,68.3,24.1,70.7-15.8,63.2,22.4,22.1,39-13.4,51.2,26.3,45.9-13.4,51.2,24.6,52.9-47.7-15.8-39.6,19.9-39.5-20.1-39.6,19.9-34.6-18.9-12.1-12.9,22.5-17.7-17.1-23,22.5-17.7-12.6-13.3-36.8-24.2-46.2,14-40.9-25.7-46.2,14-35.9-23.5-11.8-20.3,24.2-23.1-15.3-29.7,24.3-23.8-8.4-36.9Z" fill="none"/>
    </g>
    <g id="_레이어_1" data-name="레이어_1">
      <polyline points="663.4 540.4 653.8 385 471.7 393.1 465.2 400.7 472.7 549.5" fill="#cbe6ef" stroke="#040000" stroke-dasharray="10.7" stroke-miterlimit="10" stroke-width="1.3"/>
      <polygon points="653.8 385 815.6 376.5 867.3 532.5 674.4 540.4 664.2 540.8 653.8 385" fill="#cbe6ef" stroke="#040000" stroke-dasharray="10.7" stroke-miterlimit="10" stroke-width="1.3"/>
      <polygon points="472.7 549.5 866.7 531.6 1023.1 725.8 1012 821.4 870.7 812.6 774.6 804.6 740 803.3 692.4 802.1 609.2 808.3 496.1 817.7 487.4 810.1 472.7 549.5" fill="#e9d1e4"/>
      <polygon points="202.6 976.4 441.2 972.7 451.7 961.8 425.4 405.9 410.8 390.7 335.9 392.1 303.7 342.1 436.9 344.7 405.7 99.8 58.4 78.9 36.1 210.9 253.9 240.2 239.2 344.1 216.5 701.9 202.6 976.4" fill="#cbe6ef" stroke="#040000" stroke-dasharray="10.7" stroke-miterlimit="10" stroke-width="1.3"/>
      <polygon points="197.4 1019.4 458.5 1013.9 467.2 1276.5 161.3 1301.1 197.4 1019.4" fill="#cee9f2" stroke="#040000" stroke-dasharray="10.7" stroke-miterlimit="10" stroke-width="1.3"/>
      <polygon points="500.4 1140.4 1021.1 1102.8 1043.4 1357.8 798.3 1390.5 715.1 1401.2 628.5 1421.8 522.3 1449.3 515.5 1440.4 500.4 1140.4" fill="#fbe5b0" stroke="#040000" stroke-dasharray="10.7" stroke-miterlimit="10" stroke-width="1.3"/>
      <polygon points="489.8 858.1 632.8 847.1 730.1 841.9 766.8 844.6 882.4 849.1 995.7 856.3 1022.1 1103.1 501.4 1140.7 489.8 858.1" fill="#ecd3e5" stroke="#040000" stroke-dasharray="10.7" stroke-miterlimit="10" stroke-width="1.3"/>
      <polygon points="467.2 1276.5 478.8 1457.6 431.2 1475.3 383.3 1485.9 302.8 1499.6 132.1 1532.7 133.4 1523 161.3 1301.1 467.2 1276.5" fill="#fbe5b0" stroke="#040000" stroke-dasharray="10.7" stroke-miterlimit="10" stroke-width="1.3"/>
      <g>
        <line x1="240.3" y1="342" x2="240" y2="347.3" fill="none" stroke="#040000" stroke-miterlimit="10" stroke-width="1.3"/>
        <line x1="239.4" y1="357.8" x2="202.9" y2="963.7" fill="none" stroke="#040000" stroke-dasharray="10.6 10.6" stroke-miterlimit="10" stroke-width="1.3"/>
        <path d="M202.6,969l-.3,5.3s-1.8-.1-5.3-.4" fill="none" stroke="#040000" stroke-miterlimit="10" stroke-width="1.3"/>
        <path d="M186.1,973.1c-64.4-5.3-306.1-29.8-433-106.6" fill="none" stroke="#040000" stroke-dasharray="10.8 10.8" stroke-miterlimit="10" stroke-width="1.3"/>
        <path d="M-269.9,911.4c59.5,21.3,282.7,96.7,457.7,98.6" fill="none" stroke="#040000" stroke-dasharray="10.8 10.8" stroke-miterlimit="10" stroke-width="1.3"/>
        <path d="M193.2,1010c1.8,0,3.6,0,5.3,0l-.7,5.3" fill="none" stroke="#040000" stroke-miterlimit="10" stroke-width="1.3"/>
        <line x1="196.6" y1="1025.8" x2="133.5" y2="1522.2" fill="none" stroke="#040000" stroke-dasharray="10.5 10.5" stroke-miterlimit="10" stroke-width="1.3"/>
        <polyline points="132.8 1527.4 132.1 1532.7 132.8 1527.4" fill="none" stroke="#040000" stroke-miterlimit="10" stroke-width="1.3"/>
        <line x1="134.1" y1="1516.9" x2="160" y2="1311.7" fill="none" stroke="#040000" stroke-dasharray="10.6 10.6" stroke-miterlimit="10" stroke-width="1.3"/>
        <polyline points="160.7 1306.4 161.3 1301.1 166.7 1300.7" fill="none" stroke="#040000" stroke-miterlimit="10" stroke-width="1.3"/>
        <line x1="177.3" y1="1299.9" x2="469.2" y2="1276.3" fill="none" stroke="#040000" stroke-dasharray="10.6 10.6" stroke-miterlimit="10" stroke-width="1.3"/>
        <line x1="474.5" y1="1275.9" x2="479.8" y2="1275.5" fill="none" stroke="#040000" stroke-miterlimit="10" stroke-width="1.3"/>
      </g>
      <g>
        <line x1="379.6" y1="97.7" x2="374.2" y2="97.4" fill="none" stroke="#040000" stroke-miterlimit="10" stroke-width="1.3"/>
        <line x1="363.6" y1="96.7" x2="29.6" y2="74.9" fill="none" stroke="#040000" stroke-dasharray="10.6 10.6" stroke-miterlimit="10" stroke-width="1.3"/>
        <polyline points="24.3 74.5 19 74.2 18.2 79.4" fill="none" stroke="#040000" stroke-miterlimit="10" stroke-width="1.3"/>
        <line x1="16.6" y1="90.5" x2="1.2" y2="195.7" fill="none" stroke="#040000" stroke-dasharray="11.2 11.2" stroke-miterlimit="10" stroke-width="1.3"/>
        <polyline points=".4 201.3 -.3 206.5 5 207.2" fill="none" stroke="#040000" stroke-miterlimit="10" stroke-width="1.3"/>
        <line x1="15.6" y1="208.5" x2="244.3" y2="236.8" fill="none" stroke="#040000" stroke-dasharray="10.7 10.7" stroke-miterlimit="10" stroke-width="1.3"/>
        <polyline points="249.6 237.4 254.9 238.1 254.1 243.4" fill="none" stroke="#040000" stroke-miterlimit="10" stroke-width="1.3"/>
        <line x1="252.7" y1="253.7" x2="241.7" y2="331.5" fill="none" stroke="#040000" stroke-dasharray="10.5 10.5" stroke-miterlimit="10" stroke-width="1.3"/>
        <polyline points="240.9 336.7 240.2 342 245.5 342" fill="none" stroke="#040000" stroke-miterlimit="10" stroke-width="1.3"/>
        <line x1="256.4" y1="342.1" x2="424.5" y2="343.3" fill="none" stroke="#040000" stroke-dasharray="10.8 10.8" stroke-miterlimit="10" stroke-width="1.3"/>
        <line x1="429.9" y1="343.4" x2="435.3" y2="343.4" fill="none" stroke="#040000" stroke-miterlimit="10" stroke-width="1.3"/>
      </g>
      <path d="M219,735.3s-212.3-38.4-357.3-83.4" fill="none" stroke="#040000" stroke-dasharray="10.7" stroke-miterlimit="10" stroke-width="1.3"/>
      <path d="M228.7,559.3c1.4-3.3-162.4-38.8-286.1-77.4" fill="none" stroke="#040000" stroke-dasharray="10.7" stroke-miterlimit="10" stroke-width="1.3"/>
      <path d="M84.1-117.2c-1.3,8.2-3,16.4-3.8,24.7-2.5,26.2-4.4,52.5-7.2,78.7-1.8,16.8-5,33.5-7.4,50.3-1.6,11.2-2.9,19-4.6,30.2-2.4,14.9-5.2,33.1-7.6,47.9-2.5,15.4-4.6,30.8-7.2,46.2-2,12.2-4.4,24.4-6.8,36.5-4.8,24.3-9.7,48.6-14.8,72.8-3.1,14.8-6,29.6-10,44.1-6.8,24.7-14.2,49.1-21.6,73.6-5.3,17.5-10.7,35-16.4,52.4-3.2,10-7,19.8-10.6,29.6-6,16.1-11.8,32.3-18.4,48.2-10.4,25.1-20.7,50.2-34.1,73.9-16.3,28.8-31.8,58.1-47.9,86.9-9.3,16.7-19.6,32.8-29,49.4-5.7,10-10.3,20.7-16,30.7-22.2,39.4-44.5,78.7-66.9,117.9-16,28-32.2,56-48.3,84-16.5,28.7-33.3,57.2-49.5,86-8.7,15.4-16.8,31.2-22.6,48.1-4.3,12.4-9.8,24.4-14.8,36.6-4.2,10.2-8.4,20.4-12.5,30.6-12.5,31-31.4,58.1-51.1,84.7-17.8,24-196,214-214.2,237.8-10.5,13.7-21.3,27.1-32,40.6-1.9,2.4-3.7,4.4-7.4,3.4-15.7-4.1-31.4-7.9-47.1-11.9-.4-.1-.7-.7-1.6-1.6,4.8-6.2,9.6-12.6,14.5-18.9,30.8-39.8,222-245.7,252.3-285.9,11.6-15.4,23-31.3,31-49,6.8-14.9,13-30.1,19.3-45.2,5.2-12.4,10.5-24.8,15.1-37.4,14.8-40.2,38.9-75.4,59.7-112.3,9.6-17.1,19.5-34.1,29.3-51.1,13.6-23.5,27.4-46.9,40.9-70.5,12.8-22.4,25.4-45,38-67.5,8.5-15.3,16.8-30.6,25.3-45.9.8-1.4,1.6-2.8,2.7-4,17-20.1,27.9-44,41.2-66.4,15.4-25.9,29.6-52.4,44.3-78.7,6-10.8,12.5-21.4,17.8-32.5,6.2-13.1,11.6-26.6,17-40.1,5.7-14.2,11.4-28.5,16.6-42.9,6-16.4,11.4-33,17-49.6,2.3-6.9,4.6-13.8,6.8-20.7,5.4-17.2,11.3-34.3,16.1-51.6,8.2-29.6,15.9-59.4,23.3-89.2,3.7-14.6,6.6-29.4,9.4-44.3,2.9-15.6,4.9-31.3,7.5-47,1.7-10.6,3.8-21.2,5.5-31.8,2.7-16.4,5.4-32.9,8-49.3,1.6-9.8,3.3-19.6,4.9-29.5,1.8-11.7,3.6-23.4,5.3-35.1,1.3-9,2.5-18.1,3.6-27.2,1.7-13.9,3.5-27.7,5-41.6,2-18.4,3.8-36.9,5.7-55.3.8-7.7,1.8-15.5,2.7-23.2,15.2,3.8,30.4,7.6,45.6,11.4Z" fill="#595959"/>
      <path d="M244.2,116.8c44.7.2,88.5.3,133.2.5-.2,30-.4,59.2-.6,89.3-18.3-.2-35.6-.3-53.3-.5-.3-7.8-.6-14.4-.9-22.2-26.1-2.1-52.1-.5-78.6-1.9,0-21.8.2-43,.3-65.3Z" fill="#595959"/>
      <path d="M342.2,746.9c15.1-1,29-2,43.7-3,.3-4.1.5-7.9.8-12.8,13.1-.8,26.1-1.6,40.2-2.5,1.4,21.9,2.8,43.3,4.2,65.2-5.3.7-10.1,1.4-15.2,2,0,3.2.2,6.1.3,9.6-6.7.6-13.3,1.2-20.3,1.8.6,11,1.2,21.4,1.8,32.6-16.4.9-32.4,1.8-49.2,2.7-2.1-32.2-4.2-63.5-6.4-95.7Z" fill="#595959"/>
      <path d="M346.4,1133.8c18.2-1.3,35.2-2.4,53.2-3.7,1.8,32.8,3.5,67.5,5.3,100-4.6.4-8,.7-11.5,1-3.1.3-6.3.5-9.9.7.4,10.9.9,21,1.3,32.2-16.9,1.8-33.4,2.5-50.8,3.6-2-19.4-2.7-38.3-3.8-57.7,6.9-.5,13.3-.9,20.6-1.4-1.5-23.8-2.9-50-4.4-74.8Z" fill="#595959"/>
      <path d="M282.9,762.3c-13.3.6-27.2,1.1-41.9,1.8-.8-13.1-1.5-25.6-2.3-38.8,28.1-1.6,55.1-3.1,83.1-4.6,1.7,30.9,3.3,60.9,5,92-7.1.9-13.9,1.7-21.6,2.7.4,10.7.7,21.3,1.1,32.8-13.6.7-26.6,1.3-40.4,2-.9-18.2-1.8-35.8-2.8-53.9,7.9-.5,15-1,21.7-1.5" fill="#595959"/>
      <path d="M615.7,601.1c1.5,22,2.8,42.4,4.2,63.5-7.7.7-14.8,1.4-22,2-.1,4.1-.2,7.5-.3,11.8-29.1,1.9-57.9,3.9-87.8,5.9-1.5-25.1-3-49.8-4.6-75.6,36.8-2.5,73.1-5,110.5-7.6Z" fill="#595959"/>
      <path d="M623.7,1148.4c1.4,20.9,2.7,40.3,4,60.4-7.3.7-9.1,1-16,1.6-.1,3.9.8,7.5.7,11.5-27.6,1.9-55,3.7-83.4,5.6-1.5-23.9-2.9-47.4-4.4-71.9,35-2.4,63.4-4.8,99-7.2Z" fill="#595959"/>
      <path d="M765.7,1139c1.6,24.5,3.2,48,4.8,71.9-28.5,1.7-55.8,3.4-83.5,5.1-.6-4-.1-7.7-.7-11.5-6.9.2-8.7.2-16,.4-1.2-20.1-2.4-39.5-3.7-60.4,35.6-2.1,64.1-3.4,99.2-5.4Z" fill="#595959"/>
      <path d="M868.8,603.9c14.6-.7,27.8-1.3,42.1-2,1.5,15,2.9,29.4,4.4,44.5,14.4-.4,28.1-.7,42.8-1.1,1.7,20.6,3.3,40.5,4.9,61-28.8,1.3-56.8,2.5-85.5,3.7-2.9-35.6-5.8-70.4-8.8-106.2Z" fill="#595959"/>
      <path d="M661.1,957.1c-2-26.3-3.9-51.4-5.8-77.8,32.2-1.4,63.8-2.9,96.5-4.3,2,25.6,3.9,51,6,77.3-32.2,1.6-63.8,3.2-96.6,4.8Z" fill="#595959"/>
      <path d="M614,973.6c-32.4,2-63.5,4-95.8,6-1.7-26.5-3.4-52.6-5.1-79.6,32-2.1,63-4.1,95.2-6.2,1.9,26.6,3.8,52.7,5.7,79.8Z" fill="#595959"/>
      <path d="M1017.6,1181.4c-32.7,2.3-60.6,4.2-97.4,6.7-1.6-27.5-3.2-35.6-4.8-63.6,32.5-2.3,64-4.6,96.8-6.9,1.8,27.6,3.6,35.7,5.4,63.8Z" fill="#595959"/>
      <path d="M445.8,1294.9c1.2,22.3,2.2,42.8,3.3,63.3-5.8,2.4-83.4,9-98.3,8.2-1.3-20.8-2.6-41.8-4-63.9,16.8-2.4,33.3-2.7,49.6-4.2,16.1-1.4,32.3-2.3,49.4-3.5Z" fill="#595959"/>
      <path d="M296.2,1318.3c1.2,23.5,2.3,45.2,3.5,66.8-6.1,2.6-88,9.5-103.7,8.7-1.4-22-2.7-44.1-4.2-67.4,17.7-2.5,35.1-2.9,52.4-4.4,17-1.5,34.1-2.4,52.1-3.7Z" fill="#595959"/>
      <path d="M921.8,698.1c-.6-.1-1.1-.2-1.7-.3-.1,1.4-.2,2.8-.3,4.2.3,0,.7,0,1,0,.3-1.3.7-2.6,1-3.9Z" fill="#595959"/>
      <path d="M453.9,436.7c.4,2.6,1.5,5.6-4.6,7,2.2-3.3,3.5-5.2,4.8-7.1,0,0-.2,0-.2,0Z" fill="#595959"/>
      <path d="M921.8,698.1c-.3,1.3-.7,2.6-1,3.9-.3,0-.7,0-1,0,.1-1.4.2-2.8.3-4.2.6.1,1.1.2,1.7.3Z" fill="#595959"/>
      <g>
        <path d="M314.9,1638.3c-1.3-13.6-1.9-19.1-3.2-32.4,14.9-1.6,29.2-3,44.2-4.6-1-13.4-1.9-26.2-2.9-39.8,20.5-1.8,16.5-1.5,36.8-3.3,2.5,26.8,4.4,46.1,6.8,72.8-35.3,3.1-46.2,4.2-81.7,7.4Z" fill="#595959"/>
        <text transform="translate(326.7 1628.6) rotate(-4.7)" fill="#89c680" font-family="AppleSDGothicNeo-ExtraBold-KSCpc-EUC-H, &apos;Apple SD Gothic Neo&apos;" font-size="24.3" font-weight="700"><tspan x="0" y="0">422-7</tspan></text>
      </g>
      <polygon points="464.1 393.5 815.6 376.5 798.8 328.2 462.4 343.4 464.1 393.5" fill="#595959"/>
      <polygon points="335.9 392.1 442.1 390.1 440.2 342.7 303.7 342.1 335.9 392.1" fill="#595959"/>
      <text transform="translate(438.1 482.9) rotate(-3.3)" fill="#8eb6d0" font-family="AppleSDGothicNeo-Heavy-KSCpc-EUC-H, &apos;Apple SD Gothic Neo&apos;" font-size="29.7" font-weight="800"><tspan x="0" y="0">금</tspan><tspan x="0" y="33.9">사</tspan><tspan x="0" y="67.8">래</tspan><tspan x="7.3" y="101.7">1</tspan><tspan x="0" y="135.6">길</tspan><tspan x="0" y="169.5">◀︎</tspan></text>
      <text transform="translate(467.7 1112.9) rotate(-3.3)" fill="#8eb6d0" font-family="AppleSDGothicNeo-Heavy-KSCpc-EUC-H, &apos;Apple SD Gothic Neo&apos;" font-size="29.7" font-weight="800"><tspan x="0" y="0">금</tspan><tspan x="0" y="33.9">사</tspan><tspan x="0" y="67.8">래</tspan><tspan x="7.3" y="101.7">1</tspan><tspan x="0" y="135.6">길</tspan><tspan x="0" y="169.5">◀︎</tspan></text>
      <text transform="translate(25.7 1578.2) rotate(-10.4)" fill="#fff" font-family="AppleSDGothicNeo-Heavy-KSCpc-EUC-H, &apos;Apple SD Gothic Neo&apos;" font-size="30.5" font-weight="800"><tspan x="0" y="0">진입로▶︎▷</tspan></text>
      <text transform="translate(811.3 1419.3) rotate(-7.2)" fill="#dbcf37" font-family="AppleSDGothicNeo-Heavy-KSCpc-EUC-H, &apos;Apple SD Gothic Neo&apos;" font-size="29.7" font-weight="800"><tspan x="0" y="0">금사래길▲</tspan></text>
      <text transform="translate(592.6 840.2) rotate(-3.8)" fill="#f5bac5" font-family="AppleSDGothicNeo-Heavy-KSCpc-EUC-H, &apos;Apple SD Gothic Neo&apos;" font-size="27" font-weight="800"><tspan x="0" y="0">금사래2길▼▲</tspan></text>
      <g>
        <line x1="501.4" y1="1140.7" x2="1022.2" y2="1102.8" fill="#fff"/>
        <g>
          <line x1="501.4" y1="1140.7" x2="506.7" y2="1140.3" fill="none" stroke="#040000" stroke-miterlimit="10" stroke-width="1.3"/>
          <line x1="517.1" y1="1139.5" x2="1011.7" y2="1103.5" fill="none" stroke="#040000" stroke-dasharray="10.4 10.4" stroke-miterlimit="10" stroke-width="1.3"/>
          <line x1="1016.9" y1="1103.2" x2="1022.2" y2="1102.8" fill="none" stroke="#040000" stroke-miterlimit="10" stroke-width="1.3"/>
        </g>
      </g>
      <g>
        <line x1="442.2" y1="683.7" x2="222.4" y2="692" fill="#fff"/>
        <g>
          <line x1="442.2" y1="683.7" x2="436.9" y2="683.9" fill="none" stroke="#040000" stroke-miterlimit="10" stroke-width="1.3"/>
          <line x1="425.8" y1="684.3" x2="233.2" y2="691.6" fill="none" stroke="#040000" stroke-dasharray="11 11" stroke-miterlimit="10" stroke-width="1.3"/>
          <line x1="227.7" y1="691.8" x2="222.4" y2="692" fill="none" stroke="#040000" stroke-miterlimit="10" stroke-width="1.3"/>
        </g>
      </g>
      <g>
        <line x1="1044.3" y1="1358.1" x2="1043.9" y2="1352.8" fill="none" stroke="#040000" stroke-miterlimit="10" stroke-width="1.3"/>
        <polyline points="1042.9 1342 1022.1 1103.1 995.8 856.5 994.1 830.3" fill="none" stroke="#040000" stroke-dasharray="10.8 10.8" stroke-miterlimit="10" stroke-width="1.3"/>
        <polyline points="993.7 824.9 993.4 819.6 998.7 820.4" fill="none" stroke="#040000" stroke-miterlimit="10" stroke-width="1.3"/>
        <polyline points="1006.6 821.5 1011.9 822.2 1012.5 816.9" fill="none" stroke="#040000" stroke-miterlimit="10" stroke-width="1.3"/>
        <line x1="1013.6" y1="807.5" x2="1021.9" y2="736.7" fill="none" stroke="#040000" stroke-dasharray="9.5 9.5" stroke-miterlimit="10" stroke-width="1.3"/>
        <polyline points="1022.4 732 1023.1 726.7 1019.7 722.5" fill="none" stroke="#040000" stroke-miterlimit="10" stroke-width="1.3"/>
        <line x1="1013.3" y1="714.4" x2="873.9" y2="540.7" fill="none" stroke="#040000" stroke-dasharray="10.4 10.4" stroke-miterlimit="10" stroke-width="1.3"/>
        <polyline points="870.7 536.6 867.3 532.5 862 532.7" fill="none" stroke="#040000" stroke-miterlimit="10" stroke-width="1.3"/>
        <line x1="851.1" y1="533.2" x2="486.1" y2="549.9" fill="none" stroke="#040000" stroke-dasharray="10.9 10.9" stroke-miterlimit="10" stroke-width="1.3"/>
        <line x1="480.7" y1="550.1" x2="475.4" y2="550.4" fill="none" stroke="#040000" stroke-miterlimit="10" stroke-width="1.3"/>
      </g>
      <g>
        <polyline points="444 343.2 438.7 343.4 438 338.1" fill="none" stroke="#040000" stroke-miterlimit="10" stroke-width="1.3"/>
        <line x1="436.6" y1="327.9" x2="408" y2="108.1" fill="none" stroke="#040000" stroke-dasharray="10.3 10.3" stroke-miterlimit="10" stroke-width="1.3"/>
        <polyline points="407.4 103 406.7 97.7 412 98.2" fill="none" stroke="#040000" stroke-miterlimit="10" stroke-width="1.3"/>
        <line x1="422.4" y1="99.2" x2="728.2" y2="128.7" fill="none" stroke="#040000" stroke-dasharray="10.4 10.4" stroke-miterlimit="10" stroke-width="1.3"/>
        <polyline points="733.4 129.2 738.7 129.7 740.2 134.8" fill="none" stroke="#040000" stroke-miterlimit="10" stroke-width="1.3"/>
        <line x1="743" y1="144.8" x2="792.1" y2="318.9" fill="none" stroke="#040000" stroke-dasharray="10.3 10.3" stroke-miterlimit="10" stroke-width="1.3"/>
        <polyline points="793.5 323.9 794.9 329 789.6 329.2" fill="none" stroke="#040000" stroke-miterlimit="10" stroke-width="1.3"/>
        <line x1="779.1" y1="329.6" x2="449.2" y2="343" fill="none" stroke="#040000" stroke-dasharray="10.5 10.5" stroke-miterlimit="10" stroke-width="1.3"/>
      </g>
      <g>
        <line x1="577.6" y1="116.5" x2="578.7" y2="121.8" fill="none" stroke="#040000" stroke-miterlimit="10" stroke-width="1.3"/>
        <line x1="580.6" y1="131.7" x2="618.4" y2="326" fill="none" stroke="#040000" stroke-dasharray="10.1 10.1" stroke-miterlimit="10" stroke-width="1.3"/>
        <line x1="619.3" y1="331" x2="620.4" y2="336.2" fill="none" stroke="#040000" stroke-miterlimit="10" stroke-width="1.3"/>
      </g>
      <g>
        <line x1="634.4" y1="544" x2="634.7" y2="549.3" fill="none" stroke="#040000" stroke-miterlimit="10" stroke-width="1.3"/>
        <line x1="635.4" y1="560.2" x2="649.6" y2="795.4" fill="none" stroke="#040000" stroke-dasharray="11 11" stroke-miterlimit="10" stroke-width="1.3"/>
        <line x1="650" y1="800.8" x2="650.3" y2="806.2" fill="none" stroke="#040000" stroke-miterlimit="10" stroke-width="1.3"/>
      </g>
      <g>
        <line x1="853.6" y1="532.8" x2="853.9" y2="538.1" fill="none" stroke="#040000" stroke-miterlimit="10" stroke-width="1.3"/>
        <line x1="854.5" y1="549" x2="870" y2="804.1" fill="none" stroke="#040000" stroke-dasharray="10.9 10.9" stroke-miterlimit="10" stroke-width="1.3"/>
        <line x1="870.3" y1="809.5" x2="870.6" y2="814.8" fill="none" stroke="#040000" stroke-miterlimit="10" stroke-width="1.3"/>
      </g>
      <g>
        <line x1="629.5" y1="846.3" x2="629.8" y2="851.6" fill="none" stroke="#040000" stroke-miterlimit="10" stroke-width="1.3"/>
        <polyline points="630.3 862.1 644.6 1133.9 658.9 1403.4" fill="none" stroke="#040000" stroke-dasharray="10.5 10.5" stroke-miterlimit="10" stroke-width="1.3"/>
        <line x1="659.2" y1="1408.7" x2="659.5" y2="1414" fill="none" stroke="#040000" stroke-miterlimit="10" stroke-width="1.3"/>
      </g>
      <g>
        <line x1="767.4" y1="847.2" x2="767.7" y2="852.5" fill="none" stroke="#040000" stroke-miterlimit="10" stroke-width="1.3"/>
        <polyline points="768.2 863 781.8 1127.7 798.6 1380.3" fill="none" stroke="#040000" stroke-dasharray="10.5 10.5" stroke-miterlimit="10" stroke-width="1.3"/>
        <line x1="798.9" y1="1385.5" x2="799.3" y2="1390.8" fill="none" stroke="#040000" stroke-miterlimit="10" stroke-width="1.3"/>
      </g>
      <g>
        <line x1="920.5" y1="1371.6" x2="920.1" y2="1366.2" fill="none" stroke="#040000" stroke-miterlimit="10" stroke-width="1.3"/>
        <polyline points="919.3 1355.8 900.1 1111.3 883.1 859.6" fill="none" stroke="#040000" stroke-dasharray="10.5 10.5" stroke-miterlimit="10" stroke-width="1.3"/>
        <line x1="882.8" y1="854.4" x2="882.4" y2="849.1" fill="none" stroke="#040000" stroke-miterlimit="10" stroke-width="1.3"/>
      </g>
      <g>
        <line x1="329.8" y1="689.4" x2="330.1" y2="694.7" fill="none" stroke="#040000" stroke-miterlimit="10" stroke-width="1.3"/>
        <line x1="330.6" y1="705.5" x2="343" y2="960.4" fill="none" stroke="#040000" stroke-dasharray="10.9 10.9" stroke-miterlimit="10" stroke-width="1.3"/>
        <line x1="343.3" y1="965.8" x2="343.6" y2="971.1" fill="none" stroke="#040000" stroke-miterlimit="10" stroke-width="1.3"/>
      </g>
      <g>
        <line x1="316.2" y1="1016.8" x2="316.2" y2="1022.1" fill="none" stroke="#040000" stroke-miterlimit="10" stroke-width="1.3"/>
        <polyline points="316 1032.6 311.7 1287.8 319.8 1486.3" fill="none" stroke="#040000" stroke-dasharray="10.4 10.4" stroke-miterlimit="10" stroke-width="1.3"/>
        <line x1="320" y1="1491.5" x2="320.2" y2="1496.8" fill="none" stroke="#040000" stroke-miterlimit="10" stroke-width="1.3"/>
      </g>
      <polygon points="684.2 394 771.5 392.1 775.8 478.3 723.6 480.4 720.9 458.2 688 459.1 684.2 394" fill="#595959"/>
      <text transform="translate(244.8 891.1) rotate(-2.4)" fill="#4991b1" font-family="AppleSDGothicNeo-ExtraBold-KSCpc-EUC-H, &apos;Apple SD Gothic Neo&apos;" font-size="27" font-weight="700"><tspan x="0" y="0">조재범</tspan><tspan x="11.7" y="32.4">여훼</tspan></text>
      <text transform="translate(529.1 728.7) rotate(-2.4)" fill="#e77576" font-family="AppleSDGothicNeo-ExtraBold-KSCpc-EUC-H, &apos;Apple SD Gothic Neo&apos;" font-size="27" font-weight="700"><tspan x="0" y="0">조희경</tspan><tspan x="0" y="32.4">김해창</tspan></text>
      <text transform="translate(357.6 886.6) rotate(-2.4)" fill="#488baa" font-family="AppleSDGothicNeo-ExtraBold-KSCpc-EUC-H, &apos;Apple SD Gothic Neo&apos;" font-size="27" font-weight="700"><tspan x="0" y="0">조희경</tspan></text>
      <text transform="translate(678.2 999) rotate(-2.4)" fill="#e77576" font-family="AppleSDGothicNeo-ExtraBold-KSCpc-EUC-H, &apos;Apple SD Gothic Neo&apos;" font-size="27" font-weight="700"><tspan x="0" y="0">곽인숙</tspan></text>
      <text transform="translate(894.4 755.1) rotate(-2.4)" fill="#e77576" font-family="AppleSDGothicNeo-ExtraBold-KSCpc-EUC-H, &apos;Apple SD Gothic Neo&apos;" font-size="27" font-weight="700"><tspan x="0" y="0">최재윤</tspan><tspan x="0" y="32.4">전정애</tspan></text>
      <g>
        <path d="M938.8,1222.6l-.5-11.5,3.6-.2v3.3c.1,0,4.6-.2,4.6-.2v-3.3c-.1,0,3.5-.2,3.5-.2l.5,11.5-11.6.5ZM957.3,1224l.4,8.9-3.6.2-.3-6.1-12.3.5v-2.8c-.1,0,15.7-.7,15.7-.7ZM946.6,1216.8l-4.4.2v2.6c.1,0,4.5-.2,4.5-.2v-2.6ZM957,1217.5l.2,5.5-3.6.2-.6-14.1,3.6-.2.2,5.7h3.3c0-.1.1,2.8.1,2.8h-3.3Z" fill="#f29600"/>
        <path d="M968,1221.4c-3.6.2-6.4-2-6.5-5.4-.1-3.4,2.5-5.7,6.1-5.9s6.4,2,6.6,5.3c.1,3.4-2.5,5.8-6.1,6ZM967.7,1213c-1.6,0-2.8,1.2-2.7,2.9,0,1.7,1.4,2.7,3,2.6,1.6,0,2.8-1.2,2.8-2.9,0-1.7-1.4-2.7-3-2.6ZM973.7,1232.1c-5.3.2-8.5-1.5-8.7-4.4-.1-3,3-5.1,8.2-5.3,5.3-.2,8.6,1.5,8.7,4.6.1,2.9-3,4.9-8.3,5.2ZM973.4,1225.2c-3,.1-4.8,1-4.8,2.3,0,1.2,1.9,1.9,4.9,1.8,3.1-.1,4.8-1,4.8-2.2,0-1.3-1.8-2-5-1.9ZM974.9,1216.4h2.9c0-.1-.1-2.5-.1-2.5h-2.9c0,.1-.2-2.9-.2-2.9h3c0-.1-.1-3-.1-3l3.6-.2.6,14.3-3.6.2v-3c-.1,0-3.1.1-3.1.1v-3Z" fill="#f29600"/>
        <path d="M994.2,1223.1v-2.2c0,0-9.2.4-9.2.4v-2.9c-.1,0,21.6-.9,21.6-.9v2.9c.1,0-9,.4-9,.4v2.2c0,0,6.4-.3,6.4-.3l.4,8.4-3.6.2-.2-5.5-12.7.5v-2.8c-.1,0,6.4-.3,6.4-.3ZM987.2,1217.4l-1.5-2.7c4.2-.6,7.9-2.8,7.8-6.4v-.7s3.6-.2,3.6-.2v.7c.2,3.6,3.9,5.3,8.3,5.6l-1.2,2.8c-3.3-.3-7.2-1.7-8.7-4.5-1.3,2.9-5,4.7-8.2,5.3Z" fill="#f29600"/>
        <path d="M939.4,1250.5v-2.8c-.1,0,13.8-.6,13.8-.6v2.8c.1,0-13.8.6-13.8.6ZM946.5,1251c3.3-.1,6,1.8,6.1,4.9.1,3.1-2.4,5.3-5.7,5.4-3.3.1-5.9-1.8-6.1-4.9-.1-3.1,2.3-5.3,5.6-5.4ZM942.5,1243.3l7.4-.3v2.9c.1,0-7.3.3-7.3.3v-2.9ZM946.8,1258.8c1.5,0,2.7-1.1,2.6-2.7,0-1.6-1.3-2.6-2.8-2.5-1.5,0-2.6,1.2-2.6,2.7,0,1.6,1.3,2.6,2.8,2.5ZM958.5,1250.9h3.3c0-.1.1,2.8.1,2.8h-3.3c0,.1.5,11.5.5,11.5l-3.6.2-1-24,3.6-.2.4,9.8Z" fill="#f29600"/>
        <path d="M970.5,1254.4c-2.9.2-6.3.5-7.6.5l-.4-2.8c1.6,0,3.1-.1,4.6-.2l-.2-4.4h3.4c0-.1.2,4.2.2,4.2,2-.2,6-.6,7.2-.8l.3,2.7c-1.5.2-4.8.7-7.4.9ZM975.7,1249.5l-3.4-.3c.2-1,.3-3.2.3-4.9l-9,.4v-2.8c-.1,0,12.4-.5,12.4-.5.1,3,.2,6.1-.2,8.1ZM974.4,1264.3c-5.5.2-8.6-1.4-8.8-4.1-.1-2.8,2.9-4.6,8.4-4.8,5.5-.2,8.7,1.3,8.8,4.1.1,2.7-3,4.6-8.5,4.8ZM969.3,1260.1c0,1,1.9,1.7,5,1.6,3.1-.1,4.9-1,4.9-2,0-1-1.9-1.7-5-1.6-3.1.1-4.9,1-4.8,2ZM982,1246.3h3c0-.1.1,2.8.1,2.8h-3c0,.1.2,5.5.2,5.5l-3.5.2-.6-14.4,3.5-.2.3,6.1Z" fill="#f29600"/>
        <path d="M986.7,1247.4v-2.7c-.1,0,14-.6,14-.6v2.7c.1,0-14,.6-14,.6ZM1002.2,1258.9c-4,.8-10.6,1.5-15,1.7l-.5-3c5-.2,10-.6,15.1-1.3l.4,2.6ZM994.3,1256.2c-3.4.1-5.9-1.6-6-4-.1-2.4,2.1-4.4,5.6-4.5,3.4-.1,5.9,1.6,6,4,.1,2.4-2.2,4.4-5.6,4.5ZM990.2,1241l6.8-.3v2.7c.1,0-6.7.3-6.7.3v-2.7ZM994.1,1250.3c-1.3,0-2.2.8-2.2,1.7,0,.9,1,1.6,2.3,1.5,1.3,0,2.2-.8,2.2-1.7,0-.9-1-1.6-2.3-1.5ZM1006.9,1263.1l-3.6.2-1-24,3.6-.2,1,24Z" fill="#f29600"/>
      </g>
      <text transform="translate(345.4 1068.7) rotate(-2.4)" fill="#4991b1" font-family="AppleSDGothicNeo-ExtraBold-KSCpc-EUC-H, &apos;Apple SD Gothic Neo&apos;" font-size="27" font-weight="700"><tspan x="0" y="0">김상태</tspan><tspan x="0" y="32.4">오남전</tspan></text>
      <text transform="translate(367.7 1407.1) rotate(-2.4)" fill="#e99211" font-family="AppleSDGothicNeo-ExtraBold-KSCpc-EUC-H, &apos;Apple SD Gothic Neo&apos;" font-size="27" font-weight="700"><tspan x="0" y="0" xml:space="preserve">김숙자     </tspan></text>
      <text transform="translate(686.9 1256.4) rotate(-2.4)" fill="#e99211" font-family="AppleSDGothicNeo-ExtraBold-KSCpc-EUC-H, &apos;Apple SD Gothic Neo&apos;" font-size="27" font-weight="700"><tspan x="0" y="0">성연아</tspan><tspan x="0" y="32.4">정택수</tspan></text>
      <text transform="translate(211.7 1434.1) rotate(-2.4)" fill="#e99211" font-family="AppleSDGothicNeo-ExtraBold-KSCpc-EUC-H, &apos;Apple SD Gothic Neo&apos;" font-size="27" font-weight="700"><tspan x="0" y="0">장정순</tspan><tspan x="0" y="32.4">민창기</tspan></text>
      <text transform="translate(735.2 684.2) rotate(-2.4)" fill="#e77576" font-family="AppleSDGothicNeo-ExtraBold-KSCpc-EUC-H, &apos;Apple SD Gothic Neo&apos;" font-size="27" font-weight="700"><tspan x="0" y="0">박미옥</tspan><tspan x="0" y="32.4">심원기</tspan></text>
      <text transform="translate(702.2 516.4) rotate(-2.4)" fill="#488baa" font-family="AppleSDGothicNeo-ExtraBold-KSCpc-EUC-H, &apos;Apple SD Gothic Neo&apos;" font-size="27" font-weight="700"><tspan x="0" y="0">이은자</tspan></text>
      <text transform="translate(308.2 259.3) rotate(-.4)" fill="#4991b1" font-family="AppleSDGothicNeo-ExtraBold-KSCpc-EUC-H, &apos;Apple SD Gothic Neo&apos;" font-size="27" font-weight="700"><tspan x="0" y="0">한인범</tspan><tspan x="0" y="32.4">심윤희</tspan></text>
      <text transform="translate(536.3 1016.1) rotate(-4)" fill="#dc7272" font-family="AppleSDGothicNeo-ExtraBold-KSCpc-EUC-H, &apos;Apple SD Gothic Neo&apos;" font-size="27" font-weight="700"><tspan x="0" y="0">김성은</tspan><tspan x="0" y="32.4">김송이</tspan></text>
      <path d="M659.3,651.9c-1-26.7-1.6-41.9-2.7-68.5,63.4-3.3,115.8-6.2,179.4-9.5,2.4,26.7,3.2,35.7,6.1,68.5-72,3.8-107.2,5.9-182.7,9.5Z" fill="#595959"/>
      <text transform="translate(567.7 1271.8) rotate(-2.4)" fill="#f29600" font-family="AppleSDGothicNeo-ExtraBold-KSCpc-EUC-H, &apos;Apple SD Gothic Neo&apos;" font-size="44" font-weight="700"><tspan x="0" y="0">?</tspan></text>
      <polygon points="658.9 633.6 660.2 679.9 707.7 678.6 706.4 631.4 658.9 633.6" fill="#595959"/>
      <line x1="228.7" y1="540.4" x2="431.2" y2="527.7" fill="#fff" stroke="#040000" stroke-dasharray="10.7" stroke-miterlimit="10" stroke-width="1.3"/>
      <polygon points="408.8 388.8 426.4 406.5 425.6 388.8 408.8 388.8" fill="#595959"/>
      <g>
        <g>
          <g>
            <polygon points="497.9 818.1 486.7 807.9 487.7 818.5 497.9 818.1" fill="#595959"/>
            <g>
              <path d="M631.5,807.8c6.6-.6,12.7-1.2,18.8-1.7,15.8-1.2,31.7-3.2,47.5-3.4,21.2-.2,42.5.2,63.7,1.9,17.4,1.4,34.6,1.9,51.9,4.5,19.2,2.8,38.1,1.5,57.3,4.2,9.9,1.4,65.9,2.2,81.8,4.6,2.6.4,36.4,1.9,40,2.8,1.7,10.7,3.2,19.4,3.2,35.4-11.1-1.6-40.4-1.9-50.5-3.4-25.8-3.7-171.5-7.2-187.6-9-13.6-1.6-27.4-2.5-41.1-2-28,1.1-55.9,3.1-83.8,5.2-44.8,3.3-89.6,6.8-134.4,10.3-2.6.2-5.2.4-8.6.7,9.3,197.6,18.6,394.5,28,592,2-.2,3.8-.2,5.5-.6,43.3-11.2,86.7-22,129.8-33.8,31.8-8.7,64.1-14.3,96.7-18.4,43-5.5,85.9-11.6,128.8-17.4,43-5.8,85.9-11.4,128.9-17.2,28-3.8,56-7.9,84-11.5,44.5-5.9,89.1-11.8,133.7-17.2,29.1-3.5,11.4-.8,40.6-3.3,42.6-3.6,35.9-5.2,78.6-7.7,62.8-3.8,33.7-1.8,96.5-5.1,46.7-2.4,39.2,2.7,86,.4,39.8-2,79.5-3.8,119.3-5.7,1.6,0,3.2.5,4.7.7-3.3,13.1-6.5,26.2-9.8,39.3-29,1.4-58.1,2.7-87.1,4.1-38.7,1.9-77.4,3.9-116,5.8-37.6,1.9,16.9-1.4-20.7.5-48.6,2.6-43-2.5-91.6.7-41.3,2.7-33.3,4.3-74.6,8.2-41.8,4-36.7,2.8-78.3,8-41.7,5.2-83.2,11.5-124.8,17.2-38.1,5.2-76.3,10.2-114.4,15.3-33.9,4.6-67.7,9.4-101.6,14-38.7,5.3-77.4,10.1-116,15.9-14.6,2.2-29,6.1-43.3,9.7-34.5,8.7-68.9,17.6-103.3,26.5-48.3,12.5-96.6,24.8-144.7,37.8-28.9,7.8-58.4,12.7-87.9,17.6-31.3,5.2-707.1,124.5-738.4,129.7-2.4.4-4.9.4-7.2,1-16.1,4.4-31.7,2.4-47.6-2.2-20.5-5.9-41.3-10.5-63.1-15.9,1.4-1,2-1.9,2.8-2,23.5-4.9,691.3-124.3,714.9-128.3,34.8-6,69.7-10.9,104.5-16.5,26.9-4.3,53.8-8.2,80.5-13.7,21.6-4.4,42.8-10.9,64.1-16.5,10.4-2.7,17.4-8.9,28.4-11.8-17.4-364.7-33.1-694.5-50.3-1055.9-.9-18.6-1.8-37.2-2.7-56,13.1-.8,25.8-1.5,39.6-2.3,8.3,176.6,17.9,311.4,25.6,474.9,14.6-1,28.7-2,42.9-3,21.2-1.6,42.4-3.2,63.5-4.8M609.2,809.2" fill="#595959"/>
              <polygon points="197.4 1019.4 458.5 1013.9 456.5 969.9 202.2 974.3 197.4 1019.4" fill="#595959"/>
              <polygon points="452.7 959.7 442.2 970.6 452.8 970 452.7 959.7" fill="#595959"/>
            </g>
          </g>
          <polygon points="475.2 1444.6 467.3 1461.5 478.8 1457.6 475.2 1444.6" fill="#595959"/>
        </g>
        <polygon points="527.7 1450.8 516.5 1440.7 517.5 1451.3 527.7 1450.8" fill="#595959"/>
      </g>
      <polygon points="463.6 402.5 473.5 391 460.2 389.6 463.6 402.5" fill="#595959"/>
      <g>
        <polygon points="433 306.7 415.4 306.6 414.6 300.9 432.2 300.9 433 306.7" fill="#b7b6b6"/>
        <polygon points="434 313.9 416.4 313.9 415.6 308.1 433.2 308.1 434 313.9" fill="#b7b6b6"/>
        <polygon points="435 321.1 417.4 321.1 416.6 315.3 434.2 315.3 435 321.1" fill="#b7b6b6"/>
        <polygon points="436 328.3 418.4 328.3 417.6 322.5 435.2 322.5 436 328.3" fill="#b7b6b6"/>
        <polygon points="437 335.5 419.4 335.5 418.6 329.7 436.2 329.7 437 335.5" fill="#b7b6b6"/>
        <polygon points="437.9 342.6 420.4 342.6 419.6 336.8 437.2 336.8 437.9 342.6" fill="#b7b6b6"/>
      </g>
      <g>
        <polygon points="452.4 307.1 434.8 307.1 434 301.3 451.6 301.3 452.4 307.1" fill="#b7b6b6"/>
        <polygon points="453.4 314.3 435.8 314.3 435 308.5 452.6 308.5 453.4 314.3" fill="#b7b6b6"/>
        <polygon points="454.3 321.5 436.8 321.5 436 315.7 453.6 315.7 454.3 321.5" fill="#b7b6b6"/>
        <polygon points="455.3 328.7 437.8 328.7 437 322.9 454.5 322.9 455.3 328.7" fill="#b7b6b6"/>
        <polygon points="456.3 335.9 438.8 335.9 438 330.1 455.5 330.1 456.3 335.9" fill="#b7b6b6"/>
        <polygon points="457.3 343 439.7 343 438.9 337.2 456.5 337.2 457.3 343" fill="#b7b6b6"/>
      </g>
      <g>
        <polygon points="647.7 770.5 630.3 772.1 630 766.4 647.4 764.7 647.7 770.5" fill="#b7b6b6"/>
        <polygon points="648.1 777.6 630.7 779.2 630.4 773.5 647.8 771.9 648.1 777.6" fill="#b7b6b6"/>
        <polygon points="648.5 784.8 631.1 786.4 630.8 780.6 648.2 779 648.5 784.8" fill="#b7b6b6"/>
        <polygon points="648.9 791.9 631.5 793.5 631.2 787.8 648.6 786.2 648.9 791.9" fill="#b7b6b6"/>
        <polygon points="649.3 799.1 631.9 800.7 631.6 794.9 649 793.3 649.3 799.1" fill="#b7b6b6"/>
        <polygon points="649.7 806.2 632.3 807.8 632 802 649.4 800.4 649.7 806.2" fill="#b7b6b6"/>
      </g>
      <g>
        <polygon points="656.6 1378.7 639.1 1383.5 638.8 1377.8 656.3 1373 656.6 1378.7" fill="#b7b6b6"/>
        <polygon points="656.9 1385.8 639.4 1390.6 639.1 1384.9 656.6 1380.1 656.9 1385.8" fill="#b7b6b6"/>
        <polygon points="657.2 1392.9 639.7 1397.8 639.5 1392 657 1387.2 657.2 1392.9" fill="#b7b6b6"/>
        <polygon points="657.6 1400.1 640.1 1404.9 639.8 1399.2 657.3 1394.3 657.6 1400.1" fill="#b7b6b6"/>
        <polygon points="657.9 1407.2 640.4 1412 640.1 1406.3 657.6 1401.4 657.9 1407.2" fill="#b7b6b6"/>
        <polygon points="658.2 1414.2 640.7 1419 640.5 1413.3 658 1408.5 658.2 1414.2" fill="#b7b6b6"/>
      </g>
      <g>
        <polygon points="358.8 935.5 342.6 936 342.3 930.2 358.5 929.7 358.8 935.5" fill="#b7b6b6"/>
        <polygon points="359.1 942.7 343 943.2 342.7 937.4 358.8 936.9 359.1 942.7" fill="#b7b6b6"/>
        <polygon points="359.5 949.9 343.3 950.4 343 944.6 359.2 944.1 359.5 949.9" fill="#b7b6b6"/>
        <polygon points="359.8 957.1 343.7 957.6 343.4 951.8 359.5 951.3 359.8 957.1" fill="#b7b6b6"/>
        <polygon points="360.2 964.3 344 964.8 343.7 959 359.9 958.5 360.2 964.3" fill="#b7b6b6"/>
        <polygon points="360.5 971.5 344.4 971.9 344.1 966.1 360.2 965.7 360.5 971.5" fill="#b7b6b6"/>
      </g>
      <g>
        <polygon points="217 1477.5 199.4 1480.5 198.9 1474.9 216.5 1471.9 217 1477.5" fill="#b7b6b6"/>
        <polygon points="217.6 1484.5 200 1487.5 199.5 1481.9 217.1 1478.9 217.6 1484.5" fill="#b7b6b6"/>
        <polygon points="218.2 1491.5 200.6 1494.5 200.1 1488.9 217.7 1485.9 218.2 1491.5" fill="#b7b6b6"/>
        <polygon points="218.8 1498.5 201.2 1501.5 200.7 1495.9 218.3 1492.9 218.8 1498.5" fill="#b7b6b6"/>
        <polygon points="219.4 1505.5 201.8 1508.5 201.3 1502.9 218.9 1499.9 219.4 1505.5" fill="#b7b6b6"/>
        <polygon points="220 1512.4 202.4 1515.5 202 1509.8 219.5 1506.8 220 1512.4" fill="#b7b6b6"/>
      </g>
      <g>
        <polygon points="336.8 1458.2 319.5 1461 319.3 1455.3 336.6 1452.5 336.8 1458.2" fill="#b7b6b6"/>
        <polygon points="337.1 1465.4 319.8 1468.2 319.6 1462.4 336.9 1459.6 337.1 1465.4" fill="#b7b6b6"/>
        <polygon points="337.5 1472.5 320.1 1475.3 319.9 1469.6 337.2 1466.8 337.5 1472.5" fill="#b7b6b6"/>
        <polygon points="337.8 1479.7 320.4 1482.5 320.2 1476.7 337.5 1473.9 337.8 1479.7" fill="#b7b6b6"/>
        <polygon points="338.1 1486.8 320.7 1489.6 320.5 1483.9 337.8 1481.1 338.1 1486.8" fill="#b7b6b6"/>
        <polygon points="338.4 1493.9 321.1 1496.7 320.8 1490.9 338.1 1488.2 338.4 1493.9" fill="#b7b6b6"/>
      </g>
      <g>
        <polygon points="223.2 938.2 205.6 938.5 205.9 932.8 223.6 932.5 223.2 938.2" fill="#b7b6b6"/>
        <polygon points="222.8 945.4 205.2 945.7 205.5 940 223.2 939.6 222.8 945.4" fill="#b7b6b6"/>
        <polygon points="222.4 952.6 204.8 952.9 205.1 947.1 222.7 946.8 222.4 952.6" fill="#b7b6b6"/>
        <polygon points="222 959.7 204.4 960.1 204.7 954.3 222.3 954 222 959.7" fill="#b7b6b6"/>
        <polygon points="221.6 966.9 204 967.2 204.3 961.5 221.9 961.2 221.6 966.9" fill="#b7b6b6"/>
        <polygon points="221.2 974 203.6 974.3 203.9 968.6 221.5 968.3 221.2 974" fill="#b7b6b6"/>
      </g>
      <g>
        <polygon points="666.6 769 648.6 770.4 648.3 764.6 666.2 763.3 666.6 769" fill="#b7b6b6"/>
        <polygon points="667 776.2 649.1 777.6 648.7 771.8 666.7 770.4 667 776.2" fill="#b7b6b6"/>
        <polygon points="667.5 783.3 649.5 784.7 649.2 779 667.1 777.6 667.5 783.3" fill="#b7b6b6"/>
        <polygon points="667.9 790.5 650 791.9 649.6 786.1 667.6 784.8 667.9 790.5" fill="#b7b6b6"/>
        <polygon points="668.4 797.7 650.4 799.1 650.1 793.3 668 791.9 668.4 797.7" fill="#b7b6b6"/>
        <polygon points="668.8 804.8 650.8 806.2 650.5 800.4 668.5 799 668.8 804.8" fill="#b7b6b6"/>
      </g>
      <g>
        <polygon points="675.2 1373.5 658.4 1377.8 658.1 1372 674.9 1367.7 675.2 1373.5" fill="#b7b6b6"/>
        <polygon points="675.6 1380.7 658.8 1385.1 658.5 1379.3 675.3 1374.9 675.6 1380.7" fill="#b7b6b6"/>
        <polygon points="675.9 1387.9 659.1 1392.3 658.8 1386.5 675.6 1382.1 675.9 1387.9" fill="#b7b6b6"/>
        <polygon points="676.3 1395.2 659.5 1399.5 659.2 1393.7 676 1389.4 676.3 1395.2" fill="#b7b6b6"/>
        <polygon points="676.7 1402.4 659.9 1406.7 659.6 1400.9 676.4 1396.6 676.7 1402.4" fill="#b7b6b6"/>
        <polygon points="677.1 1409.5 660.3 1413.9 660 1408.1 676.8 1403.7 677.1 1409.5" fill="#b7b6b6"/>
      </g>
      <g>
        <polygon points="917.2 1339 899.5 1341.4 899.1 1335.7 916.8 1333.3 917.2 1339" fill="#b7b6b6"/>
        <polygon points="917.7 1346.1 900 1348.5 899.6 1342.8 917.3 1340.4 917.7 1346.1" fill="#b7b6b6"/>
        <polygon points="918.2 1353.2 900.5 1355.6 900.1 1349.9 917.8 1347.5 918.2 1353.2" fill="#b7b6b6"/>
        <polygon points="918.7 1360.3 901 1362.7 900.6 1357 918.3 1354.6 918.7 1360.3" fill="#b7b6b6"/>
        <polygon points="919.2 1367.4 901.5 1369.8 901.1 1364.1 918.8 1361.7 919.2 1367.4" fill="#b7b6b6"/>
        <polygon points="919.7 1374.4 902 1376.8 901.6 1371.1 919.3 1368.7 919.7 1374.4" fill="#b7b6b6"/>
      </g>
      <g>
        <polygon points="936.2 1336.2 918.6 1338.4 918.2 1332.7 935.8 1330.4 936.2 1336.2" fill="#b7b6b6"/>
        <polygon points="936.9 1343.3 919.2 1345.5 918.8 1339.8 936.4 1337.6 936.9 1343.3" fill="#b7b6b6"/>
        <polygon points="937.5 1350.4 919.8 1352.7 919.4 1346.9 937 1344.7 937.5 1350.4" fill="#b7b6b6"/>
        <polygon points="938.1 1357.6 920.4 1359.8 920 1354.1 937.6 1351.8 938.1 1357.6" fill="#b7b6b6"/>
        <polygon points="938.7 1364.7 921.1 1366.9 920.6 1361.2 938.2 1359 938.7 1364.7" fill="#b7b6b6"/>
        <polygon points="939.3 1371.7 921.7 1374 921.2 1368.3 938.8 1366 939.3 1371.7" fill="#b7b6b6"/>
      </g>
      <g>
        <polygon points="772.9 769.9 755.1 768.9 754.5 763.2 772.3 764.2 772.9 769.9" fill="#b7b6b6"/>
        <polygon points="773.7 777.1 755.9 776.1 755.3 770.3 773.1 771.3 773.7 777.1" fill="#b7b6b6"/>
        <polygon points="774.5 784.2 756.7 783.2 756.1 777.5 773.9 778.5 774.5 784.2" fill="#b7b6b6"/>
        <polygon points="775.3 791.4 757.5 790.4 756.8 784.6 774.6 785.6 775.3 791.4" fill="#b7b6b6"/>
        <polygon points="776 798.5 758.3 797.5 757.6 791.8 775.4 792.8 776 798.5" fill="#b7b6b6"/>
        <polygon points="776.8 805.6 759 804.6 758.4 798.9 776.2 799.8 776.8 805.6" fill="#b7b6b6"/>
      </g>
      <g>
        <polygon points="886.6 779.2 869.3 777.9 868.9 772.1 886.3 773.4 886.6 779.2" fill="#b7b6b6"/>
        <polygon points="887.1 786.4 869.7 785.1 869.4 779.3 886.7 780.6 887.1 786.4" fill="#b7b6b6"/>
        <polygon points="887.6 793.6 870.2 792.4 869.8 786.6 887.2 787.8 887.6 793.6" fill="#b7b6b6"/>
        <polygon points="888 800.8 870.7 799.6 870.3 793.8 887.7 795 888 800.8" fill="#b7b6b6"/>
        <polygon points="888.5 808 871.2 806.8 870.8 801 888.1 802.2 888.5 808" fill="#b7b6b6"/>
        <polygon points="889 815.2 871.6 813.9 871.2 808.1 888.6 809.4 889 815.2" fill="#b7b6b6"/>
      </g>
      <g>
        <polygon points="632.2 300.7 614.7 301.2 613.5 295.6 631 295.1 632.2 300.7" fill="#b7b6b6"/>
        <polygon points="633.6 307.6 616.1 308.2 615 302.6 632.4 302 633.6 307.6" fill="#b7b6b6"/>
        <polygon points="635.1 314.6 617.6 315.1 616.4 309.5 633.9 309 635.1 314.6" fill="#b7b6b6"/>
        <polygon points="636.5 321.6 619 322.1 617.9 316.5 635.3 316 636.5 321.6" fill="#b7b6b6"/>
        <polygon points="638 328.5 620.5 329.1 619.3 323.5 636.8 322.9 638 328.5" fill="#b7b6b6"/>
        <polygon points="639.4 335.4 621.9 336 620.8 330.4 638.2 329.8 639.4 335.4" fill="#b7b6b6"/>
      </g>
      <text transform="translate(38.9 1573.8) rotate(-9.3)" fill="#fff" font-family="AppleSDGothicNeo-Heavy-KSCpc-EUC-H, &apos;Apple SD Gothic Neo&apos;" font-size="26" font-weight="800"><tspan x="0" y="0">진입로▶︎</tspan></text>
      <text transform="translate(746.9 1423.4) rotate(-6)" fill="#e8a139" font-family="AppleSDGothicNeo-Heavy-KSCpc-EUC-H, &apos;Apple SD Gothic Neo&apos;" font-size="24.3" font-weight="800"><tspan x="0" y="0">금사래길</tspan></text>
      <text transform="translate(592.5 372) rotate(-2.8)" fill="#a9dbf6" font-family="AppleSDGothicNeo-Heavy-KSCpc-EUC-H, &apos;Apple SD Gothic Neo&apos;" font-size="24.3" font-weight="800"><tspan x="0" y="0">금사래1길</tspan></text>
      <text transform="translate(248.2 1537) rotate(-9.7)" fill="#e8a139" font-family="AppleSDGothicNeo-Heavy-KSCpc-EUC-H, &apos;Apple SD Gothic Neo&apos;" font-size="24.3" font-weight="800"><tspan x="0" y="0">금사래길</tspan></text>
      <text transform="translate(225.9 1564.4) rotate(70.6)" fill="#86bf7e" font-family="AppleSDGothicNeo-Heavy-KSCpc-EUC-H, &apos;Apple SD Gothic Neo&apos;" font-size="31.1" font-weight="800"><tspan x="0" y="0">대곡로</tspan></text>
      <text transform="translate(619.2 838.3) rotate(-3.6)" fill="#e9d1e4" font-family="AppleSDGothicNeo-Heavy-KSCpc-EUC-H, &apos;Apple SD Gothic Neo&apos;" font-size="24.3" font-weight="800" letter-spacing="0em"><tspan x="0" y="0">금사래2길</tspan></text>
      <text transform="translate(901.8 1505.7)" font-family="AppleSDGothicNeo-ExtraBold-KSCpc-EUC-H, &apos;Apple SD Gothic Neo&apos;" font-size="37.3" font-weight="700"><tspan fill="#f29600"><tspan x="0" y="0">금사래길</tspan></tspan><tspan fill="#8eb6d0"><tspan x="0" y="44.7">금사래1길</tspan></tspan><tspan fill="#f5bac5"><tspan x="0" y="89.4">금사래2길</tspan></tspan></text>
      <text transform="translate(445.3 593.3) rotate(-3.3)" fill="#a9dbf6" font-family="AppleSDGothicNeo-Heavy-KSCpc-EUC-H, &apos;Apple SD Gothic Neo&apos;" font-size="24.3" font-weight="800"><tspan x="0" y="0">금</tspan><tspan x="0" y="24.3">사</tspan><tspan x="0" y="48.5">래</tspan><tspan x="6" y="72.8">1</tspan><tspan x="0" y="97.1">길</tspan></text>
      <text transform="translate(468.3 1095.7) rotate(-3.3)" fill="#a9dbf6" font-family="AppleSDGothicNeo-Heavy-KSCpc-EUC-H, &apos;Apple SD Gothic Neo&apos;" font-size="24.3" font-weight="800"><tspan x="0" y="0">금</tspan><tspan x="0" y="24.3">사</tspan><tspan x="0" y="48.5">래</tspan><tspan x="6" y="72.8">1</tspan><tspan x="0" y="97.1">길</tspan></text>
      <text transform="translate(386.6 66.6)" font-family="AppleSDGothicNeo-Heavy-KSCpc-EUC-H, &apos;Apple SD Gothic Neo&apos;" font-size="40.4" font-weight="800"><tspan x="0" y="0" fill="#39b54a">단지 안내도</tspan><tspan x="185.6" y="0" fill="#ed1e79"> </tspan><tspan x="196.2" y="0" fill="#a67c52">및</tspan><tspan x="231.2" y="0" xml:space="preserve" fill="#ed1e79"> 비상연락망</tspan></text>
      <text transform="translate(279.5 161.5)" fill="#a9dbf6" font-family="AppleSDGothicNeo-SemiBold-KSCpc-EUC-H, &apos;Apple SD Gothic Neo&apos;" font-size="32.3" font-weight="600"><tspan x="0" y="0">1길 11</tspan></text>
      <text transform="translate(690.4 440.1)" fill="#a9dbf6" font-family="AppleSDGothicNeo-SemiBold-KSCpc-EUC-H, &apos;Apple SD Gothic Neo&apos;" font-size="32.3" font-weight="600"><tspan x="0" y="0">1길 14</tspan></text>
      <text transform="translate(245.3 753.4)" fill="#a9dbf6" font-family="AppleSDGothicNeo-SemiBold-KSCpc-EUC-H, &apos;Apple SD Gothic Neo&apos;" font-size="25" font-weight="600"><tspan x="0" y="0">1길 5-1</tspan></text>
      <text transform="translate(359.8 777)" fill="#a9dbf6" font-family="AppleSDGothicNeo-SemiBold-KSCpc-EUC-H, &apos;Apple SD Gothic Neo&apos;" font-size="25" font-weight="600"><tspan x="0" y="0">1길 5</tspan></text>
      <text transform="translate(335.7 1232.6) rotate(-3.3)" fill="#a9dbf6" font-family="AppleSDGothicNeo-SemiBold-KSCpc-EUC-H, &apos;Apple SD Gothic Neo&apos;" font-size="25" font-weight="600"><tspan x="0" y="0">1길 3</tspan></text>
      <text transform="translate(525.3 647.5) rotate(-2.8)" fill="#f5bac5" font-family="AppleSDGothicNeo-SemiBold-KSCpc-EUC-H, &apos;Apple SD Gothic Neo&apos;" font-size="32.6" font-weight="600"><tspan x="0" y="0">2길 15</tspan></text>
      <text transform="translate(711.9 626.5) rotate(-2.8)" fill="#f5bac5" font-family="AppleSDGothicNeo-SemiBold-KSCpc-EUC-H, &apos;Apple SD Gothic Neo&apos;" font-size="32.6" font-weight="600"><tspan x="0" y="0">2길 14</tspan></text>
      <text transform="translate(882 686.1) rotate(-2.8)" fill="#f5bac5" font-family="AppleSDGothicNeo-SemiBold-KSCpc-EUC-H, &apos;Apple SD Gothic Neo&apos;" font-size="28.4" font-weight="600"><tspan x="0" y="0">2길 10</tspan></text>
      <text transform="translate(530.8 949.3) rotate(-2.8)" fill="#f5bac5" font-family="AppleSDGothicNeo-SemiBold-KSCpc-EUC-H, &apos;Apple SD Gothic Neo&apos;" font-size="28.4" font-weight="600"><tspan x="0" y="0">2길 15</tspan></text>
      <text transform="translate(236.3 1366.5) rotate(-2.8)" fill="#f6be5a" font-family="AppleSDGothicNeo-SemiBold-KSCpc-EUC-H, &apos;Apple SD Gothic Neo&apos;" font-size="36.8" font-weight="600"><tspan x="0" y="0">9</tspan></text>
      <text transform="translate(384.3 1346.3) rotate(-2.8)" fill="#f6be5a" font-family="AppleSDGothicNeo-SemiBold-KSCpc-EUC-H, &apos;Apple SD Gothic Neo&apos;" font-size="36.8" font-weight="600"><tspan x="0" y="0">11</tspan></text>
      <text transform="translate(554.3 1199.5) rotate(-2.8)" fill="#f6be5a" font-family="AppleSDGothicNeo-SemiBold-KSCpc-EUC-H, &apos;Apple SD Gothic Neo&apos;" font-size="36.8" font-weight="600"><tspan x="0" y="0">13</tspan></text>
      <text transform="translate(705.6 1189.3) rotate(-2.8)" fill="#f6be5a" font-family="AppleSDGothicNeo-SemiBold-KSCpc-EUC-H, &apos;Apple SD Gothic Neo&apos;" font-size="36.8" font-weight="600"><tspan x="0" y="0">15</tspan></text>
      <text transform="translate(949.4 1166.4) rotate(-2.8)" fill="#f6be5a" font-family="AppleSDGothicNeo-SemiBold-KSCpc-EUC-H, &apos;Apple SD Gothic Neo&apos;" font-size="36.8" font-weight="600"><tspan x="0" y="0">19</tspan></text>
      <text transform="translate(671.6 931.6) rotate(-2.8)" fill="#f5bac5" font-family="AppleSDGothicNeo-SemiBold-KSCpc-EUC-H, &apos;Apple SD Gothic Neo&apos;" font-size="28.4" font-weight="600"><tspan x="0" y="0">2길 13</tspan></text>
      <polygon id="_x3C_패스_x3E_" points="86 80.6 405.7 99.8 437.9 342.6 240.3 342 253.9 240.2 36.1 210.9 58.4 78.9 86 80.6" fill="none"/>
      <polygon id="_x31_-14" points="653.8 385 815.6 376.5 866.7 531.6 663.4 540.4 653.8 385" fill="none"/>
      <polygon id="_x32_-15" points="475.4 550.4 634.4 544 649.7 806.2 497.9 818.1 486.7 807.9 475.4 550.4" fill="none"/>
      <polygon id="_x32_-14" points="853.6 533 871.6 813.9 713.2 802.2 649.7 806.2 634.4 544 853.6 533" fill="none"/>
      <polygon id="_x32_-10" points="853.6 533 866.7 531.6 1023.1 726.7 1012 821.4 993.4 819.6 871.6 813.9 853.6 533" fill="none"/>
      <polygon id="_x31_-5-1" points="218.2 693.6 329.8 689.4 344.4 971.9 202.2 974.3 218.2 693.6" fill="none"/>
      <polygon id="_x31_-5" points="329.8 689.4 438.5 682.7 452.7 959.7 442.2 970.6 344.4 971.9 329.8 689.4" fill="none"/>
      <polygon id="_x32_-15-2" data-name="_x32_-15" points="489.8 858.1 629.5 846.3 644.4 1130 501.4 1140.7 489.8 858.1" fill="none"/>
      <polygon id="_x32_-15-3" data-name="_x32_-15" points="629.5 846.3 716.6 841.9 766.8 844.6 781.3 1119 644.4 1130 629.5 846.3" fill="none"/>
      <polygon id="_x31_-13" points="316.2 1016.8 452.7 1013.9 467.2 1276.5 311.7 1287.8 316.2 1016.8" fill="none"/>
      <polygon id="_x30_-13" points="501.4 1140.7 644.4 1130 659.5 1414 527.7 1450.8 516.5 1440.7 501.4 1140.7" fill="none"/>
      <polygon id="_x30_-11" points="311.7 1287.8 467.2 1276.5 475.2 1444.6 467.3 1461.5 431.2 1475.3 321.1 1496.7 311.7 1287.8" fill="none"/>
      <polygon id="_x30_-9" points="161.3 1301.1 133.4 1523 321.1 1496.7 311.7 1287.8 161.3 1301.1" fill="none"/>
      <polygon id="_x30_-15" points="644.4 1130 781.3 1119 799.3 1390.8 715.1 1401.2 659.5 1414 644.4 1130" fill="none"/>
      <polygon id="_x30_-19" points="900.1 1111.3 1021.1 1102.8 1043.4 1357.8 920.5 1371.6 900.1 1111.3" fill="none"/>
    </g>
  </g>
</svg>